<?xml version="1.0" standalone="no"?>
<!DOCTYPE svg PUBLIC "-//W3C//DTD SVG 1.1//EN" "http://www.w3.org/Graphics/SVG/1.1/DTD/svg11.dtd" >
<svg xmlns="http://www.w3.org/2000/svg">
<metadata>Generated by IcoMoon</metadata>
<defs>
<font id="icomoon" horiz-adv-x="512">
<font-face units-per-em="512" ascent="480" descent="-32" />
<missing-glyph horiz-adv-x="512" />
<glyph unicode="&#x20;" d="" horiz-adv-x="256" />
<glyph unicode="&#xe600;" d="M255.616 61.44v97.997l179.635-0.026v142.131h-179.635v97.817l-194.125-168.985z" />
<glyph unicode="&#xe601;" d="M424.96 230.016l-97.997 0.026 0.026 179.609h-142.131v-179.635l-97.817 0.026 168.96-194.151z" />
<glyph unicode="&#xe602;" d="M424.96 230.784l-97.997-0.025 0.026-179.609h-142.131v179.635l-97.817-0.025 168.985 194.15z" />
<glyph unicode="&#xe603;" d="M256.384 399.36v-97.997l-179.635 0.026v-142.131h179.635v-97.817l194.125 168.986z" />
<glyph unicode="&#xe604;" d="M66.099 343.014c-6.938 6.861-18.151 6.861-25.063 0-6.912-6.835-6.912-17.946 0-24.807l202.445-200.448c6.938-6.861 18.125-6.861 25.063 0l202.445 200.448c6.912 6.861 6.938 17.945 0 24.806s-18.176 6.861-25.063 0.026l-189.927-182.81-189.901 182.784z" />
<glyph unicode="&#xe605;" d="M256 465.92c-130.073 0-235.52-105.472-235.52-235.52 0-130.073 105.447-235.52 235.52-235.52s235.52 105.447 235.52 235.52c0 130.074-105.447 235.52-235.52 235.52zM256 46.080c-101.811 0-184.32 82.534-184.32 184.32s82.509 184.32 184.32 184.32 184.32-82.534 184.32-184.32-82.509-184.32-184.32-184.32zM273.92 363.52h-35.84v-140.544l87.168-87.168 25.344 25.344-76.672 76.672z" />
<glyph unicode="&#xe606;" d="M368.615 40.499c6.861-6.938 6.861-18.125 0-25.063s-17.945-6.938-24.807 0l-200.448 202.419c-6.861 6.938-6.861 18.151 0 25.063l200.448 202.445c6.861 6.938 17.945 6.938 24.807 0s6.861-18.125 0-25.063l-182.784-189.901 182.784-189.901z" />
<glyph unicode="&#xe607;" d="M445.901 117.785c6.938-6.861 18.151-6.861 25.063 0 6.938 6.861 6.938 17.945 0 24.807l-202.445 200.448c-6.912 6.861-18.125 6.861-25.037 0l-202.445-200.448c-6.912-6.861-6.938-17.945 0-24.807s18.125-6.861 25.063 0l189.901 182.81 189.901-182.81z" />
<glyph unicode="&#xe608;" d="M143.352 40.499c-6.861-6.938-6.861-18.125 0-25.063s17.946-6.938 24.806 0l200.448 202.419c6.861 6.938 6.861 18.151 0 25.063l-200.448 202.445c-6.861 6.938-17.946 6.938-24.806 0s-6.861-18.125 0-25.063l182.784-189.901-182.784-189.901z" />
<glyph unicode="&#xf004;" d="M0 305.143q0 62.857 36.285 98.286t100.285 35.428q17.715 0 36.143-6.143t34.286-16.572 27.286-19.571 21.714-19.429q10.286 10.286 21.714 19.429t27.286 19.571 34.286 16.572 36.143 6.143q64 0 100.286-35.428t36.286-98.286q0-63.143-65.428-128.571l-178-171.428q-5.143-5.143-12.572-5.143t-12.572 5.143l-178.286 172q-2.857 2.286-7.857 7.428t-15.857 18.714-19.428 27.857-15.286 34.572-6.715 39.428z" />
<glyph unicode="&#xf007;" d="M0 74q0 15.143 1 29.572t4 31.143 7.572 31 12.285 27.857 17.715 23.143 24.428 15.286 31.857 5.714q2.572 0 12-6.143t21.285-13.714 30.857-13.714 38.143-6.143 38.143 6.143 30.857 13.714 21.286 13.714 12 6.143q17.428 0 31.857-5.714t24.428-15.285 17.714-23.143 12.286-27.857 7.572-31 4-31.143 1-29.572q0-34.286-20.857-54.143t-55.428-19.857h-249.714q-34.572 0-55.428 19.857t-20.857 54.143zM91.428 329.143q0 45.428 32.143 77.571t77.572 32.143 77.571-32.143 32.143-77.571-32.143-77.572-77.572-32.143-77.572 32.143-32.143 77.572z" horiz-adv-x="403" />
<glyph unicode="&#xf00a;" d="M0 64v54.857q0 11.428 8 19.428t19.428 8h91.428q11.429 0 19.429-8t8-19.428v-54.857q0-11.428-8-19.428t-19.428-8h-91.428q-11.428 0-19.428 8t-8 19.428zM0 210.286v54.857q0 11.429 8 19.429t19.428 8h91.428q11.429 0 19.429-8t8-19.428v-54.857q0-11.428-8-19.428t-19.428-8h-91.428q-11.428 0-19.428 8t-8 19.428zM0 356.572v54.857q0 11.428 8 19.428t19.428 8h91.428q11.429 0 19.429-8t8-19.428v-54.857q0-11.428-8-19.428t-19.428-8h-91.428q-11.428 0-19.428 8t-8 19.428zM182.857 64v54.857q0 11.428 8 19.428t19.429 8h91.428q11.428 0 19.428-8t8-19.428v-54.857q0-11.428-8-19.428t-19.428-8h-91.428q-11.428 0-19.428 8t-8 19.428zM182.857 210.286v54.857q0 11.429 8 19.429t19.429 8h91.428q11.428 0 19.428-8t8-19.428v-54.857q0-11.428-8-19.428t-19.428-8h-91.428q-11.428 0-19.428 8t-8 19.428zM182.857 356.572v54.857q0 11.428 8 19.428t19.429 8h91.428q11.428 0 19.428-8t8-19.428v-54.857q0-11.428-8-19.428t-19.428-8h-91.428q-11.428 0-19.428 8t-8 19.428zM365.714 64v54.857q0 11.428 8 19.428t19.428 8h91.428q11.428 0 19.428-8t8-19.428v-54.857q0-11.428-8-19.428t-19.428-8h-91.428q-11.428 0-19.428 8t-8 19.428zM365.714 210.286v54.857q0 11.429 8 19.429t19.428 8h91.428q11.428 0 19.428-8t8-19.428v-54.857q0-11.428-8-19.428t-19.428-8h-91.428q-11.428 0-19.428 8t-8 19.428zM365.714 356.572v54.857q0 11.428 8 19.428t19.428 8h91.428q11.428 0 19.428-8t8-19.428v-54.857q0-11.428-8-19.428t-19.428-8h-91.428q-11.428 0-19.428 8t-8 19.428z" />
<glyph unicode="&#xf00c;" d="M34.572 210.286q0 11.428 8 19.428l38.857 38.857q8 8 19.428 8t19.428-8l84-84.285 187.429 187.714q8 8 19.428 8t19.428-8l38.857-38.857q8-8 8-19.428t-8-19.428l-245.714-245.714q-8-8-19.428-8t-19.428 8l-142.286 142.286q-8 8-8 19.428z" />
<glyph unicode="&#xf00d;" d="M31.428 97.714q0 11.428 8 19.428l84 84-84 84q-8 8-8 19.428t8 19.428l38.857 38.857q8 8 19.428 8t19.428-8l84-84 84 84q8 8 19.428 8t19.428-8l38.857-38.857q8-8 8-19.428t-8-19.428l-84-84 84-84q8-8 8-19.428t-8-19.428l-38.857-38.857q-8-8-19.428-8t-19.428 8l-84 84-84-84q-8-8-19.428-8t-19.428 8l-38.857 38.857q-8 8-8 19.428z" horiz-adv-x="403" />
<glyph unicode="&#xf016;" d="M0-9.143v457.143q0 11.428 8 19.428t19.428 8h256q11.428 0 25.143-5.714t21.714-13.714l89.143-89.143q8-8 13.714-21.714t5.714-25.143v-329.143q0-11.428-8-19.428t-19.428-8h-384q-11.428 0-19.428 8t-8 19.428zM36.572 0h365.714v292.572h-118.857q-11.428 0-19.428 8t-8 19.428v118.857h-219.429v-438.857zM292.572 329.143h107.428q-2.857 8.286-6.286 11.714l-89.428 89.428q-3.428 3.428-11.714 6.286v-107.428z" />
<glyph unicode="&#xf01c;" d="M0 54.857v137.714q0 17.714 7.143 35.143l68 157.714q2.857 7.143 10.428 12t15 4.857h237.714q7.428 0 15-4.857t10.428-12l68-157.714q7.143-17.428 7.143-35.143v-137.714q0-7.428-5.428-12.857t-12.857-5.428h-402.286q-7.428 0-12.857 5.428t-5.428 12.857zM56.285 201.143h90.285l27.143-54.857h91.428l27.143 54.857h90.286q-0.286 0.857-0.714 2.286t-0.714 2.286l-60.572 141.714h-202.286l-60.572-141.714q-0.285-0.572-0.715-2.286t-0.715-2.286z" />
<glyph unicode="&#xf01e;" d="M0 219.429q0 44.572 17.428 85.143t46.857 70 70 46.857 85.143 17.428q42 0 81.285-15.857t69.857-44.715l37.143 36.857q8.286 8.857 20 4 11.143-4.857 11.143-16.857v-128q0-7.428-5.428-12.857t-12.857-5.428h-128q-12 0-16.857 11.428-4.857 11.143 4 19.714l39.428 39.428q-42.286 39.143-99.714 39.143-29.714 0-56.714-11.572t-46.715-31.285-31.285-46.714-11.572-56.714 11.572-56.714 31.285-46.714 46.715-31.286 56.714-11.572q34 0 64.286 14.857t51.143 42q2 2.857 6.572 3.428 4 0 7.143-2.572l39.143-39.428q2.572-2.286 2.714-5.857t-2.143-6.428q-31.143-37.714-75.428-58.428t-93.428-20.714q-44.572 0-85.143 17.428t-70 46.857-46.857 70-17.428 85.143z" />
<glyph unicode="&#xf041;" d="M0 292.572q0 60.572 42.857 103.429t103.429 42.857 103.428-42.857 42.857-103.429q0-31.143-9.428-51.143l-104-221.143q-4.572-9.428-13.572-14.857t-19.286-5.428-19.285 5.428-13.285 14.857l-104.285 221.143q-9.428 20-9.428 51.143zM73.143 292.572q0-30.285 21.428-51.714t51.715-21.428 51.714 21.428 21.428 51.714-21.428 51.714-51.714 21.428-51.715-21.428-21.428-51.714z" horiz-adv-x="293" />
<glyph unicode="&#xf06a;" d="M0 219.429q0 59.714 29.428 110.143t79.857 79.857 110.143 29.428 110.143-29.428 79.857-79.857 29.428-110.143-29.428-110.143-79.857-79.857-110.143-29.428-110.143 29.428-79.857 79.857-29.428 110.143zM178.286 358.286l4.857-177.428q0-2.857 2.857-5t6.857-2.143h52.857q4 0 6.714 2.143t3 5l5.143 177.428q0 3.428-2.857 5.143-2.857 2.285-6.857 2.285h-62.857q-4 0-6.857-2.285-2.857-1.715-2.857-5.143zM182.857 82.572q0-3.714 2.857-6.572t6.572-2.857h54.857q3.714 0 6.286 2.714t2.571 6.714v54.286q0 4-2.571 6.714t-6.286 2.714h-54.857q-3.714 0-6.572-2.857t-2.857-6.572v-54.286z" />
<glyph unicode="&#xf077;" d="M25.715 108.143q0 7.572 5.428 13l212 211.714q5.429 5.428 12.857 5.428t12.857-5.428l212-211.714q5.428-5.428 5.428-13t-5.428-13l-47.428-47.143q-5.428-5.428-12.857-5.428t-12.857 5.428l-151.714 151.714-151.714-151.714q-5.428-5.428-12.857-5.428t-12.857 5.428l-47.428 47.143q-5.428 5.428-5.428 13z" />
<glyph unicode="&#xf078;" d="M25.715 257.572q0 7.572 5.428 13l47.428 47.143q5.428 5.428 12.857 5.428t12.857-5.428l151.714-151.714 151.714 151.714q5.428 5.428 12.857 5.428t12.857-5.428l47.428-47.143q5.428-5.428 5.428-13t-5.428-13l-212-211.714q-5.428-5.428-12.857-5.428t-12.857 5.428l-212 211.714q-5.428 5.428-5.428 13z" />
<glyph unicode="&#xf08a;" d="M0 305.143q0 62.857 36.285 98.286t100.285 35.428q17.715 0 36.143-6.143t34.286-16.572 27.286-19.571 21.714-19.429q10.286 10.286 21.714 19.429t27.286 19.571 34.286 16.572 36.143 6.143q64 0 100.286-35.428t36.286-98.286q0-63.143-65.428-128.571l-178-171.428q-5.143-5.143-12.572-5.143t-12.572 5.143l-178.286 172q-2.857 2.286-7.857 7.428t-15.857 18.714-19.428 27.857-15.286 34.572-6.715 39.428zM36.572 305.143q0-48 53.428-101.428l166-160 165.714 159.714q53.714 53.714 53.714 101.714 0 23.143-6.143 40.857t-15.714 28.143-23.286 17-26.857 8.857-28 2.286-32-7.286-31.572-18.286-24.714-20.571-17.143-17.572q-5.143-6.286-14-6.286t-14 6.286q-6.857 8-17.143 17.571t-24.715 20.572-31.572 18.286-32 7.286-28-2.286-26.857-8.857-23.285-17-15.715-28.143-6.143-40.857z" />
<glyph unicode="&#xf0b0;" d="M1.429 391.143q4.857 11.143 16.857 11.143h365.714q12 0 16.857-11.143 4.857-11.714-4-20l-140.857-140.857v-212q0-12-11.143-16.857-3.714-1.428-7.143-1.428-7.714 0-12.857 5.428l-73.143 73.143q-5.429 5.428-5.429 12.857v138.857l-140.857 140.857q-8.857 8.286-4 20z" horiz-adv-x="403" />
<glyph unicode="&#xf0c9;" d="M0 54.857v36.572q0 7.428 5.428 12.857t12.857 5.428h402.286q7.428 0 12.857-5.428t5.428-12.857v-36.572q0-7.428-5.428-12.857t-12.857-5.428h-402.286q-7.428 0-12.857 5.428t-5.428 12.857zM0 201.143v36.572q0 7.428 5.428 12.857t12.857 5.429h402.286q7.428 0 12.857-5.428t5.428-12.857v-36.571q0-7.428-5.428-12.857t-12.857-5.428h-402.286q-7.428 0-12.857 5.428t-5.428 12.857zM0 347.429v36.572q0 7.428 5.428 12.857t12.857 5.428h402.286q7.428 0 12.857-5.428t5.428-12.857v-36.572q0-7.428-5.428-12.857t-12.857-5.428h-402.286q-7.428 0-12.857 5.428t-5.428 12.857z" />
<glyph unicode="&#xf0dc;" d="M0 164.572q0 7.428 5.428 12.857t12.857 5.428h256q7.428 0 12.857-5.428t5.428-12.857-5.428-12.857l-128-128q-5.428-5.428-12.857-5.428t-12.857 5.428l-128 128q-5.428 5.428-5.428 12.857zM0 274.286q0 7.429 5.428 12.857l128 128q5.428 5.428 12.857 5.428t12.857-5.428l128-128q5.428-5.428 5.428-12.857t-5.428-12.857-12.857-5.428h-256q-7.428 0-12.857 5.428t-5.428 12.857z" horiz-adv-x="293" />
<glyph unicode="&#xf0dd;" d="M0 164.572q0 7.428 5.428 12.857t12.857 5.428h256q7.428 0 12.857-5.428t5.428-12.857-5.428-12.857l-128-128q-5.428-5.428-12.857-5.428t-12.857 5.428l-128 128q-5.428 5.428-5.428 12.857z" horiz-adv-x="293" />
<glyph unicode="&#xf0de;" d="M0 274.286q0 7.429 5.428 12.857l128 128q5.428 5.428 12.857 5.428t12.857-5.428l128-128q5.428-5.428 5.428-12.857t-5.428-12.857-12.857-5.428h-256q-7.428 0-12.857 5.428t-5.428 12.857z" horiz-adv-x="293" />
<glyph unicode="&#xf118;" d="M0 219.429q0 59.714 29.428 110.143t79.857 79.857 110.143 29.428 110.143-29.428 79.857-79.857 29.428-110.143-29.428-110.143-79.857-79.857-110.143-29.428-110.143 29.428-79.857 79.857-29.428 110.143zM36.572 219.429q0-37.143 14.572-71t39-58.286 58.285-39 71-14.572 71 14.572 58.286 39 39 58.286 14.572 71-14.572 71-39 58.285-58.286 39-71 14.572-71-14.572-58.285-39-39-58.285-14.572-71zM109.715 292.572q0 15.143 10.715 25.857t25.857 10.714 25.857-10.714 10.714-25.857-10.714-25.857-25.857-10.714-25.857 10.714-10.715 25.857zM114.857 168.286q-2.285 7.143 1.143 13.857t10.857 9q7.143 2.286 13.857-1.143t9-10.857q7.143-22.857 26.428-37t43.286-14.143 43.286 14.143 26.428 37q2.286 7.428 9.143 10.857t14 1.143 10.572-9 1.143-13.857q-10.572-34.572-39.428-55.714t-65.143-21.143-65.143 21.143-39.428 55.714zM256 292.572q0 15.143 10.714 25.857t25.857 10.714 25.857-10.714 10.714-25.857-10.714-25.857-25.857-10.714-25.857 10.714-10.714 25.857z" />
<glyph unicode="&#xf119;" d="M0 219.429q0 59.714 29.428 110.143t79.857 79.857 110.143 29.428 110.143-29.428 79.857-79.857 29.428-110.143-29.428-110.143-79.857-79.857-110.143-29.428-110.143 29.428-79.857 79.857-29.428 110.143zM36.572 219.429q0-37.143 14.572-71t39-58.286 58.285-39 71-14.572 71 14.572 58.286 39 39 58.286 14.572 71-14.572 71-39 58.285-58.286 39-71 14.572-71-14.572-58.285-39-39-58.285-14.572-71zM109.715 292.572q0 15.143 10.715 25.857t25.857 10.714 25.857-10.714 10.714-25.857-10.714-25.857-25.857-10.714-25.857 10.714-10.715 25.857zM114.857 124.286q10.572 34.572 39.429 55.714t65.143 21.143 65.143-21.143 39.428-55.714q2.286-7.143-1.143-13.857t-10.572-9-14 1.143-9.143 10.857q-7.143 22.857-26.428 37t-43.286 14.143-43.286-14.143-26.428-37q-2.286-7.428-9-10.857t-13.857-1.143q-7.428 2.286-10.857 9t-1.143 13.857zM256 292.572q0 15.143 10.714 25.857t25.857 10.714 25.857-10.714 10.714-25.857-10.714-25.857-25.857-10.714-25.857 10.714-10.714 25.857z" />
</font>
</defs>
</svg>
